<?xml version="1.0" encoding="UTF-8"?>
<svg id="Layer_1" data-name="Layer 1" xmlns="http://www.w3.org/2000/svg" viewBox="0 0 69.38 10.87">
  <path d="M.08,7.6s-.04-.01-.04-.04v-.11s.02-.04.06-.04c.14,0,.29-.01.46-.04.54-.09.8-.28.8-.55V2.19c-.03-.38-.2-.58-.51-.61-.09-.01-.2-.02-.31-.02h-.25s-.04-.01-.04-.04v-.11s.01-.04.04-.04h.19s.76,0,.76,0l1.56-.05c1.68,0,2.51.5,2.51,1.49,0,.42-.22.77-.65,1.05-.07.04-.12.08-.17.1-.05.02-.08.03-.08.04.39.22.69.46.91.73.22.27.33.59.33.97,0,.8-.38,1.36-1.13,1.67-.39.16-.81.25-1.27.25H.08ZM2.24,3.81c0,.06.03.08.1.08h1.08c.28,0,.52-.1.71-.31.19-.21.29-.44.29-.7,0-.46-.13-.79-.39-1-.26-.21-.61-.31-1.04-.31-.13,0-.22.01-.27.01s-.1,0-.16,0c-.06,0-.11,0-.17.01s-.09.03-.11.06-.03.08-.03.15v2.01ZM2.3,4.17s-.06.02-.06.05v2.41c0,.21.1.38.29.5.19.13.4.19.63.19.43,0,.8-.15,1.11-.46.3-.31.46-.69.46-1.14s-.16-.82-.49-1.11c-.33-.29-.74-.43-1.24-.43h-.7Z" style="fill: #58595b; stroke-width: 0px;"/>
  <path d="M11.05,7.06c.07.05.15.07.25.07s.17-.02.23-.07c.06-.05.11-.07.13-.07s.04.03.04.09-.03.12-.09.16c-.44.32-.74.48-.89.48-.19,0-.34-.19-.46-.58,0-.03-.02-.04-.02-.04-.36.27-.59.44-.69.49-.24.14-.48.16-.72.07-.24-.09-.42-.25-.53-.47-.05-.11-.08-.23-.08-.36,0-.25.09-.45.28-.59s.54-.29,1.05-.42c.18-.05.33-.11.47-.18s.21-.12.22-.14c0-.02.01-.04.01-.06v-.84c0-.33-.13-.56-.39-.7-.08-.04-.19-.07-.31-.07s-.24.05-.36.14-.18.23-.18.4l.02.17s-.12.09-.32.18-.3.13-.33.13c-.05,0-.07-.06-.07-.17s.03-.24.1-.38.16-.26.29-.38c.29-.27.62-.4.98-.4s.67.1.9.31c.23.2.35.45.35.73v2.32c0,.08.04.14.11.18ZM8.91,6.75c0,.14.05.26.16.37s.23.16.37.16.31-.06.51-.18c.2-.12.3-.24.3-.37v-.89s0-.05-.02-.05-.02,0-.03,0l-1.02.47c-.11.08-.18.14-.21.19-.04.05-.06.15-.06.29Z" style="fill: #58595b; stroke-width: 0px;"/>
  <path d="M15.54,7.43c.14.02.21.05.21.11,0,.04-.01.06-.04.06h-1.96s-.04-.03-.04-.06c0-.05.07-.09.21-.11.32-.05.47-.21.47-.5V1.45c0-.12-.07-.21-.2-.25-.06-.02-.12-.04-.19-.05-.07-.01-.12-.03-.16-.04-.04-.01-.06-.02-.08-.03s-.02-.03-.02-.07.02-.06.07-.09l1.12-.53s.06-.03.07-.03c.05,0,.07.04.07.11v6.46c0,.29.16.45.47.5Z" style="fill: #58595b; stroke-width: 0px;"/>
  <path d="M20.83,7.06c.07.05.15.07.25.07s.17-.02.23-.07c.06-.05.11-.07.13-.07s.04.03.04.09-.03.12-.09.16c-.44.32-.74.48-.89.48-.19,0-.34-.19-.46-.58,0-.03-.02-.04-.02-.04-.36.27-.59.44-.69.49-.24.14-.48.16-.72.07-.24-.09-.42-.25-.53-.47-.05-.11-.08-.23-.08-.36,0-.25.09-.45.28-.59s.54-.29,1.05-.42c.18-.05.33-.11.47-.18s.21-.12.22-.14c0-.02.01-.04.01-.06v-.84c0-.33-.13-.56-.39-.7-.08-.04-.19-.07-.31-.07s-.24.05-.36.14-.18.23-.18.4l.02.17s-.12.09-.32.18-.3.13-.33.13c-.05,0-.07-.06-.07-.17s.03-.24.1-.38.16-.26.29-.38c.29-.27.62-.4.98-.4s.67.1.9.31c.23.2.35.45.35.73v2.32c0,.08.04.14.11.18ZM18.69,6.75c0,.14.05.26.16.37s.23.16.37.16.31-.06.51-.18c.2-.12.3-.24.3-.37v-.89s0-.05-.02-.05-.02,0-.03,0l-1.02.47c-.11.08-.18.14-.21.19-.04.05-.06.15-.06.29Z" style="fill: #58595b; stroke-width: 0px;"/>
  <path d="M29.49,6.21v-.93c0-.38-.04-.64-.11-.8s-.15-.27-.25-.35c-.1-.08-.23-.12-.4-.12s-.52.13-1.07.4c-.07.04-.11.08-.11.12v2.36c0,.3.16.47.47.51.14.02.21.05.21.1s-.01.07-.04.08h-1.96s-.04-.03-.04-.06c0-.06.07-.09.21-.11.32-.04.47-.21.47-.51v-2.19c0-.46-.28-.69-.85-.69-.21,0-.5.12-.87.37-.09.06-.16.12-.21.17v2.34c0,.3.16.47.47.51.14.02.21.05.21.1s-.01.07-.04.08h-1.96s-.04-.03-.04-.06c0-.06.07-.09.21-.11.32-.04.47-.21.47-.5v-2.53c0-.12-.07-.21-.2-.25-.06-.02-.12-.04-.19-.05-.07-.01-.12-.03-.16-.04-.04-.01-.06-.02-.08-.03-.01,0-.02-.03-.02-.07s.02-.06.07-.09l1.12-.53s.06-.03.07-.03c.05,0,.07.04.07.11v.73s.01.03.03.03.07-.02.15-.06c.08-.04.18-.1.31-.17.13-.07.29-.16.5-.26.21-.1.43-.15.66-.15.37,0,.64.16.8.48.06.13.12.18.17.17s.13-.06.23-.11c.25-.12.5-.24.76-.36s.47-.18.63-.18c.68,0,1.02.62,1.02,1.85l-.04,1.28v.25c0,.23.11.38.34.45.1.03.19.05.28.07.09.01.15.03.18.04s.04.04.04.07-.01.06-.04.06h-2.12s-.04-.03-.04-.06c0-.06.07-.09.21-.11.31-.04.47-.23.47-.54.02-.15.04-.37.04-.66Z" style="fill: #58595b; stroke-width: 0px;"/>
  <path d="M35.24,4.59c0,.06-.02.1-.07.1s-.09-.04-.11-.11c-.07-.19-.18-.36-.31-.51-.14-.15-.31-.22-.52-.22-.27,0-.45.13-.54.4-.03.09-.04.18-.04.28s.06.2.18.32c.12.12.33.26.61.42s.49.3.62.42c.29.26.44.56.44.91s-.13.61-.38.81c-.25.2-.54.3-.88.3-.18,0-.34-.02-.49-.07-.15-.05-.23-.07-.25-.07s-.06.02-.11.07c-.05.05-.09.07-.12.07h-.07s-.04-.16-.07-.47-.04-.5-.04-.56,0-.09.02-.1.03,0,.05,0,.04,0,.06.02c.02.01.03.03.04.05.01.02.02.04.03.07,0,.02.03.07.05.13.2.42.51.64.92.64.18,0,.33-.07.44-.2.11-.14.17-.29.17-.45s-.04-.31-.13-.42-.2-.22-.33-.31-.27-.18-.42-.27c-.59-.35-.89-.73-.89-1.15,0-.31.13-.58.4-.81.27-.23.55-.34.83-.34s.49.03.63.09c.14.06.22.11.24.16s.04.18.04.42v.4Z" style="fill: #58595b; stroke-width: 0px;"/>
  <path d="M40.74,7.06c.07.05.15.07.25.07s.17-.02.23-.07c.06-.05.11-.07.13-.07s.04.03.04.09-.03.12-.09.16c-.44.32-.74.48-.89.48-.19,0-.34-.19-.46-.58,0-.03-.02-.04-.02-.04-.36.27-.59.44-.69.49-.24.14-.48.16-.72.07-.24-.09-.42-.25-.53-.47-.05-.11-.08-.23-.08-.36,0-.25.09-.45.28-.59s.54-.29,1.05-.42c.18-.05.33-.11.47-.18s.21-.12.22-.14c0-.02.01-.04.01-.06v-.84c0-.33-.13-.56-.39-.7-.08-.04-.19-.07-.31-.07s-.24.05-.36.14-.18.23-.18.4l.02.17s-.12.09-.32.18-.3.13-.33.13c-.05,0-.07-.06-.07-.17s.03-.24.1-.38.16-.26.29-.38c.29-.27.62-.4.98-.4s.67.1.9.31c.23.2.35.45.35.73v2.32c0,.08.04.14.11.18ZM38.6,6.75c0,.14.05.26.16.37s.23.16.37.16.31-.06.51-.18c.2-.12.3-.24.3-.37v-.89s0-.05-.02-.05-.02,0-.03,0l-1.02.47c-.11.08-.18.14-.21.19-.04.05-.06.15-.06.29Z" style="fill: #58595b; stroke-width: 0px;"/>
  <path d="M46.83,6.21v-.93c0-.38-.04-.64-.11-.8s-.15-.27-.25-.35c-.1-.08-.23-.12-.4-.12s-.52.13-1.07.4c-.07.04-.11.08-.11.12v2.36c0,.3.16.47.47.51.14.02.21.05.21.1s-.01.07-.04.08h-1.96s-.04-.03-.04-.06c0-.06.07-.09.21-.11.32-.04.47-.21.47-.51v-2.52c0-.12-.07-.21-.2-.25-.06-.02-.12-.04-.19-.05-.07-.01-.12-.03-.16-.04-.04-.01-.06-.02-.08-.03-.01,0-.02-.03-.02-.07s.02-.06.07-.09l1.12-.53s.06-.03.07-.03c.05,0,.07.04.07.11v.69s.02.04.04.04c.02,0,.08-.03.19-.08.25-.13.51-.25.76-.36s.47-.18.63-.18c.68,0,1.02.62,1.02,1.85l-.04,1.28v.25c0,.23.11.38.34.45.1.03.19.05.28.07.09.01.15.03.18.04s.04.04.04.07-.01.06-.04.06h-2.12s-.04-.03-.04-.06c0-.06.07-.09.21-.11.31-.04.47-.23.47-.54.02-.15.04-.37.04-.66ZM46.56,2.1c.18,0,.3-.1.35-.3.01-.05.02-.1.02-.14s.02-.06.07-.06h.08s.06.08.06.25-.07.34-.2.51-.29.26-.48.26-.38-.05-.58-.15c-.38-.2-.62-.3-.74-.3s-.22.05-.31.15c-.08.1-.13.22-.13.35,0,.04-.02.05-.07.05h-.09s-.04-.05-.04-.14c0-.24.06-.45.19-.65s.28-.29.46-.29.43.08.74.23c.31.15.53.23.64.23Z" style="fill: #58595b; stroke-width: 0px;"/>
  <path d="M53.34,7.06c.07.05.15.07.25.07s.17-.02.23-.07c.06-.05.11-.07.13-.07s.04.03.04.09-.03.12-.09.16c-.44.32-.74.48-.89.48-.19,0-.34-.19-.46-.58,0-.03-.02-.04-.02-.04-.36.27-.59.44-.69.49-.24.14-.48.16-.72.07-.24-.09-.42-.25-.53-.47-.05-.11-.08-.23-.08-.36,0-.25.09-.45.28-.59s.54-.29,1.05-.42c.18-.05.33-.11.47-.18s.21-.12.22-.14c0-.02.01-.04.01-.06v-.84c0-.33-.13-.56-.39-.7-.08-.04-.19-.07-.31-.07s-.24.05-.36.14-.18.23-.18.4l.02.17s-.12.09-.32.18-.3.13-.33.13c-.05,0-.07-.06-.07-.17s.03-.24.1-.38.16-.26.29-.38c.29-.27.62-.4.98-.4s.67.1.9.31c.23.2.35.45.35.73v2.32c0,.08.04.14.11.18ZM51.21,6.75c0,.14.05.26.16.37s.23.16.37.16.31-.06.51-.18c.2-.12.3-.24.3-.37v-.89s0-.05-.02-.05-.02,0-.03,0l-1.02.47c-.11.08-.18.14-.21.19-.04.05-.06.15-.06.29Z" style="fill: #58595b; stroke-width: 0px;"/>
</svg>