<?xml version="1.0" encoding="UTF-8"?>
<svg id="Layer_1" data-name="Layer 1" xmlns="http://www.w3.org/2000/svg" viewBox="0 0 69.38 11.86">
  <path d="M.5,9.02h.05c.05,0,.1-.02.14-.07.04-.04.08-.1.12-.15.03-.06.06-.12.07-.19s.02-.13.02-.19V2.56c0-.05,0-.11-.02-.18-.01-.07-.04-.13-.07-.19-.03-.06-.07-.11-.12-.15-.05-.04-.1-.06-.16-.06h-.05v-.11h1.8c.68,0,1.22.15,1.6.45.39.3.58.7.58,1.2,0,.21-.04.4-.11.57-.07.17-.17.32-.28.45-.11.13-.24.24-.37.34-.13.09-.26.17-.37.23.31.06.56.16.77.3.21.14.37.3.5.48.13.18.21.37.26.58.05.21.08.41.08.6,0,.38-.07.7-.21.96-.14.26-.32.47-.55.64-.23.16-.49.28-.79.36-.3.07-.6.11-.92.11H.5v-.11ZM3.74,3.61c-.02-.43-.17-.77-.45-1.02-.27-.25-.64-.38-1.11-.38h-.55v2.78h.57c.31,0,.56-.04.75-.12s.35-.19.47-.31c.12-.13.2-.27.24-.43s.07-.31.07-.45v-.08ZM4.19,7.13c-.06-.57-.25-1-.57-1.31-.32-.31-.78-.46-1.36-.46h-.62v3.42h.64c.59,0,1.06-.13,1.4-.4.34-.27.51-.64.51-1.12v-.12Z" style="fill: #58595b; stroke-width: 0px;"/>
  <path d="M10.98,9.13v-.56l-.05.06c-.18.18-.39.33-.63.43s-.53.15-.86.15c-.26,0-.48-.03-.66-.09-.18-.06-.33-.14-.45-.25-.12-.11-.2-.23-.26-.37s-.08-.29-.08-.44c0-.25.07-.47.2-.66.14-.19.33-.36.59-.51s.57-.28.94-.4c.37-.12.79-.24,1.27-.36-.01-.29-.07-.52-.18-.69-.1-.18-.22-.31-.36-.41-.14-.1-.29-.17-.44-.2-.15-.03-.29-.05-.4-.05-.19,0-.36.03-.5.09s-.27.13-.37.23c-.11.09-.2.19-.27.3s-.13.21-.18.3h-.1v-.8c.06,0,.11-.03.17-.06s.11-.06.19-.09c.11-.04.26-.11.45-.19.19-.08.46-.13.8-.13.4,0,.73.05.98.15s.44.24.58.41c.14.17.23.36.27.58s.07.44.07.67v2.18c0,.15.03.28.1.41.07.13.15.19.26.19v.11h-1.07ZM10.98,8.08v-1.57l-.11.02c-.18.04-.39.1-.64.18s-.49.17-.72.29c-.23.12-.42.26-.58.42s-.24.35-.24.56c0,.23.1.43.29.58.19.15.44.23.75.23.24,0,.45-.05.64-.16.18-.11.35-.24.51-.41l.12-.13Z" style="fill: #58595b; stroke-width: 0px;"/>
  <path d="M15.34,9.13v-.11c.06,0,.11-.02.15-.07.04-.04.08-.1.12-.15.03-.06.06-.12.07-.19s.02-.13.02-.19V2.78c0-.12-.02-.24-.05-.35-.04-.11-.15-.17-.33-.18v-.11l1.11-.34v6.61c0,.06,0,.12.02.19s.04.13.07.19c.03.06.07.11.11.15.04.04.09.07.15.07v.11h-1.44Z" style="fill: #58595b; stroke-width: 0px;"/>
  <path d="M22.95,9.13v-.56l-.05.06c-.18.18-.39.33-.63.43s-.53.15-.86.15c-.26,0-.48-.03-.66-.09-.18-.06-.33-.14-.45-.25-.12-.11-.2-.23-.26-.37s-.08-.29-.08-.44c0-.25.07-.47.2-.66.14-.19.33-.36.59-.51s.57-.28.94-.4c.37-.12.79-.24,1.27-.36-.01-.29-.07-.52-.18-.69-.1-.18-.22-.31-.36-.41-.14-.1-.29-.17-.44-.2-.15-.03-.29-.05-.4-.05-.19,0-.36.03-.5.09s-.27.13-.37.23c-.11.09-.2.19-.27.3s-.13.21-.18.3h-.1v-.8c.06,0,.11-.03.17-.06s.11-.06.19-.09c.11-.04.26-.11.45-.19.19-.08.46-.13.8-.13.4,0,.73.05.98.15s.44.24.58.41c.14.17.23.36.27.58s.07.44.07.67v2.18c0,.15.03.28.1.41.07.13.15.19.26.19v.11h-1.07ZM22.95,8.08v-1.57l-.11.02c-.18.04-.39.1-.64.18s-.49.17-.72.29c-.23.12-.42.26-.58.42s-.24.35-.24.56c0,.23.1.43.29.58.19.15.44.23.75.23.24,0,.45-.05.64-.16.18-.11.35-.24.51-.41l.12-.13Z" style="fill: #58595b; stroke-width: 0px;"/>
  <path d="M34.31,8.42c0,.06,0,.12.02.19.01.07.04.13.07.19.03.06.06.11.1.15.04.04.09.07.15.07v.11h-1.43v-.11c.06,0,.11-.02.15-.07.04-.04.08-.1.12-.15.03-.06.06-.12.07-.19s.02-.13.02-.19v-2.38c0-.17-.02-.33-.07-.48-.05-.15-.12-.29-.21-.4s-.21-.21-.35-.27-.3-.1-.47-.1c-.2,0-.37.05-.51.14-.14.09-.26.2-.35.34-.09.13-.16.27-.2.4s-.07.25-.07.34v2.43c0,.06,0,.12.02.19s.04.13.07.19c.03.06.07.11.11.15.04.04.09.07.15.07v.11h-1.42v-.11c.05,0,.1-.02.14-.07.04-.04.08-.1.12-.15.03-.06.06-.12.07-.19.01-.07.02-.13.02-.19v-2.44c0-.18-.03-.34-.09-.49-.06-.15-.15-.28-.25-.38s-.23-.18-.36-.24c-.14-.06-.27-.09-.41-.09-.19,0-.36.04-.5.11s-.26.17-.35.27c-.09.11-.16.23-.21.36-.05.13-.07.25-.07.37v2.53c0,.06,0,.12.02.19.01.07.04.13.07.19.03.06.07.11.11.15.04.04.09.07.15.07v.11h-1.42v-.11c.05,0,.1-.02.14-.07.04-.04.08-.1.12-.15.03-.06.06-.12.07-.19s.02-.13.02-.19v-2.94c0-.06,0-.12-.01-.2,0-.07-.02-.14-.04-.21s-.06-.12-.11-.17-.12-.07-.21-.07v-.1l1.09-.36v.56c.11-.12.26-.25.46-.36.19-.12.45-.18.76-.18.21,0,.39.03.55.09.16.06.3.13.42.23s.23.2.31.31.16.23.22.34c.06-.11.13-.22.21-.34.08-.11.18-.22.29-.31.11-.1.25-.17.41-.23.16-.06.34-.09.56-.09.41,0,.73.07.97.22.23.15.41.32.52.53.11.21.19.42.21.64.03.22.04.41.04.57v2.06Z" style="fill: #58595b; stroke-width: 0px;"/>
  <path d="M41.55,7.88c0,.19-.05.37-.14.53-.1.16-.23.3-.39.42-.17.12-.36.22-.58.29-.22.07-.46.1-.71.1-.32,0-.57-.04-.77-.13-.2-.08-.37-.17-.51-.26-.1-.06-.18-.11-.26-.15-.08-.04-.17-.06-.26-.06v-.84h.11c.02.1.09.21.19.34.11.12.23.23.38.34s.32.19.5.26c.18.07.36.1.54.1.13,0,.27-.01.41-.04.14-.03.27-.08.38-.14.11-.07.21-.15.29-.25.08-.1.12-.22.12-.36s-.04-.26-.12-.36-.18-.19-.31-.27c-.12-.08-.27-.15-.43-.2-.16-.06-.32-.11-.48-.17-.19-.06-.38-.12-.58-.2s-.37-.16-.52-.26c-.15-.1-.28-.22-.37-.36s-.14-.31-.14-.51c0-.17.03-.33.09-.48.06-.15.17-.29.31-.4s.33-.21.56-.27c.23-.07.5-.1.83-.1.29,0,.51.02.67.07s.29.1.39.15c.07.04.13.06.2.08.07.02.14.03.22.03v.77h-.09c-.13-.24-.33-.43-.6-.55-.27-.12-.55-.19-.84-.19-.18,0-.34.02-.47.07-.13.05-.24.11-.32.18-.08.07-.15.15-.19.24-.04.09-.06.18-.06.26,0,.12.03.23.1.32.07.09.17.17.29.23.12.07.26.13.41.19.15.06.31.11.48.17.21.07.41.14.62.21.21.08.39.17.55.28.16.11.29.24.4.39.1.15.15.33.15.54Z" style="fill: #58595b; stroke-width: 0px;"/>
  <path d="M47.6,9.13v-.56l-.05.06c-.18.18-.39.33-.63.43s-.53.15-.86.15c-.26,0-.48-.03-.66-.09-.18-.06-.33-.14-.45-.25-.12-.11-.2-.23-.26-.37s-.08-.29-.08-.44c0-.25.07-.47.2-.66.14-.19.33-.36.59-.51s.57-.28.94-.4c.37-.12.79-.24,1.27-.36-.01-.29-.07-.52-.18-.69-.1-.18-.22-.31-.36-.41-.14-.1-.29-.17-.44-.2-.15-.03-.29-.05-.4-.05-.19,0-.36.03-.5.09s-.27.13-.37.23c-.11.09-.2.19-.27.3s-.13.21-.18.3h-.1v-.8c.06,0,.11-.03.17-.06s.11-.06.19-.09c.11-.04.26-.11.45-.19.19-.08.46-.13.8-.13.4,0,.73.05.98.15s.44.24.58.41c.14.17.23.36.27.58s.07.44.07.67v2.18c0,.15.03.28.1.41.07.13.15.19.26.19v.11h-1.07ZM47.6,8.08v-1.57l-.11.02c-.18.04-.39.1-.64.18s-.49.17-.72.29c-.23.12-.42.26-.58.42s-.24.35-.24.56c0,.23.1.43.29.58.19.15.44.23.75.23.24,0,.45-.05.64-.16.18-.11.35-.24.51-.41l.12-.13Z" style="fill: #58595b; stroke-width: 0px;"/>
  <path d="M56.34,8.42c0,.06,0,.12.02.19s.04.13.07.19c.03.06.07.11.11.15.04.04.09.07.15.07v.11h-1.42v-.11c.05,0,.1-.02.14-.07.04-.04.08-.1.12-.15.03-.06.06-.12.07-.19.01-.07.02-.13.02-.19v-2.05c0-.26-.04-.49-.11-.69-.07-.2-.17-.36-.3-.5-.12-.13-.27-.23-.42-.29-.16-.06-.32-.09-.48-.09s-.32.03-.48.1-.3.15-.42.26c-.12.11-.22.23-.3.37-.08.14-.12.29-.12.45v2.44c0,.06,0,.12.02.19s.04.13.07.19c.03.06.07.11.11.15.04.04.09.07.15.07v.11h-1.43v-.11c.05,0,.1-.02.14-.07.04-.04.08-.1.12-.15.03-.06.06-.12.07-.19s.02-.13.02-.19v-3.04c0-.12-.02-.24-.05-.36-.04-.11-.14-.17-.32-.18v-.1l1.1-.35v.6c.05-.06.12-.12.2-.19.08-.07.18-.14.29-.2.11-.06.25-.11.4-.15.15-.04.33-.06.53-.06.34,0,.64.06.88.18.24.12.44.27.59.46s.27.39.34.62c.07.22.1.44.1.65v2.12ZM55.59,3.06c-.09.33-.17.55-.26.65-.08.1-.2.15-.36.15-.09,0-.19-.02-.3-.07-.11-.04-.22-.09-.34-.15-.12-.06-.23-.11-.35-.15-.11-.05-.22-.07-.31-.07-.11,0-.2.04-.28.12-.08.08-.16.19-.26.32h-.05c.1-.31.22-.53.36-.66.14-.13.28-.19.42-.19.09,0,.18.02.29.06.1.04.2.09.3.14.1.05.2.1.3.15.1.04.2.06.29.06.12,0,.22-.04.3-.12s.15-.17.21-.27h.04Z" style="fill: #58595b; stroke-width: 0px;"/>
  <path d="M62.88,9.13v-.56l-.05.06c-.18.18-.39.33-.63.43s-.53.15-.86.15c-.26,0-.48-.03-.66-.09-.18-.06-.33-.14-.45-.25-.12-.11-.2-.23-.26-.37s-.08-.29-.08-.44c0-.25.07-.47.2-.66.14-.19.33-.36.59-.51s.57-.28.94-.4c.37-.12.79-.24,1.27-.36-.01-.29-.07-.52-.18-.69-.1-.18-.22-.31-.36-.41-.14-.1-.29-.17-.44-.2-.15-.03-.29-.05-.4-.05-.19,0-.36.03-.5.09s-.27.13-.37.23c-.11.09-.2.19-.27.3s-.13.21-.18.3h-.1v-.8c.06,0,.11-.03.17-.06s.11-.06.19-.09c.11-.04.26-.11.45-.19.19-.08.46-.13.8-.13.4,0,.73.05.98.15s.44.24.58.41c.14.17.23.36.27.58s.07.44.07.67v2.18c0,.15.03.28.1.41.07.13.15.19.26.19v.11h-1.07ZM62.88,8.08v-1.57l-.11.02c-.18.04-.39.1-.64.18s-.49.17-.72.29c-.23.12-.42.26-.58.42s-.24.35-.24.56c0,.23.1.43.29.58.19.15.44.23.75.23.24,0,.45-.05.64-.16.18-.11.35-.24.51-.41l.12-.13Z" style="fill: #58595b; stroke-width: 0px;"/>
</svg>